<svg xmlns="http://www.w3.org/2000/svg" xmlns:xlink="http://www.w3.org/1999/xlink" width="400" zoomAndPan="magnify" viewBox="0 0 300 299.999988" height="400" preserveAspectRatio="xMidYMid meet" version="1.0"><defs><clipPath id="1548751a9a"><path d="M 30 11.226562 L 276 11.226562 L 276 246 L 30 246 Z M 30 11.226562 " clip-rule="nonzero"/></clipPath><clipPath id="799385937e"><path d="M 149 69 L 157 69 L 157 288.726562 L 149 288.726562 Z M 149 69 " clip-rule="nonzero"/></clipPath></defs><g clip-path="url(#1548751a9a)"><path fill="#020200" d="M 274.058594 121.898438 L 205.75 62.144531 L 205.75 14.984375 C 205.75 12.90625 204.070312 11.226562 201.988281 11.226562 C 199.910156 11.226562 198.230469 12.90625 198.230469 14.984375 L 198.230469 55.582031 L 156.441406 19.015625 C 155.039062 17.78125 152.9375 17.78125 151.523438 18.996094 L 31.941406 121.878906 C 30.367188 123.230469 30.1875 125.605469 31.539062 127.175781 C 32.277344 128.042969 33.332031 128.488281 34.390625 128.488281 C 35.253906 128.488281 36.132812 128.191406 36.839844 127.578125 L 153.949219 26.816406 L 198.242188 65.554688 L 198.242188 241.332031 C 198.242188 243.414062 199.921875 245.089844 202 245.089844 C 204.082031 245.089844 205.757812 243.414062 205.757812 241.332031 L 205.757812 72.132812 L 269.117188 127.558594 C 270.679688 128.917969 273.058594 128.761719 274.417969 127.210938 C 275.78125 125.648438 275.621094 123.273438 274.058594 121.898438 Z M 274.058594 121.898438 " fill-opacity="1" fill-rule="nonzero"/></g><path fill="#020200" d="M 57.417969 144.160156 C 55.335938 144.160156 53.65625 145.839844 53.65625 147.917969 L 53.65625 185.15625 C 53.65625 187.238281 55.335938 188.914062 57.417969 188.914062 C 59.496094 188.914062 61.175781 187.238281 61.175781 185.15625 L 61.175781 147.917969 C 61.175781 145.851562 59.496094 144.160156 57.417969 144.160156 Z M 57.417969 144.160156 " fill-opacity="1" fill-rule="nonzero"/><path fill="#020200" d="M 250.503906 144.160156 C 248.425781 144.160156 246.746094 145.839844 246.746094 147.917969 L 246.746094 185.15625 C 246.746094 187.238281 248.425781 188.914062 250.503906 188.914062 C 252.585938 188.914062 254.261719 187.238281 254.261719 185.15625 L 254.261719 147.917969 C 254.261719 145.851562 252.585938 144.160156 250.503906 144.160156 Z M 250.503906 144.160156 " fill-opacity="1" fill-rule="nonzero"/><path fill="#020200" d="M 105.445312 100.070312 C 103.367188 100.070312 101.6875 101.75 101.6875 103.828125 L 101.6875 226.3125 C 101.6875 228.394531 103.367188 230.070312 105.445312 230.070312 C 107.527344 230.070312 109.203125 228.394531 109.203125 226.3125 L 109.203125 103.828125 C 109.203125 101.75 107.527344 100.070312 105.445312 100.070312 Z M 105.445312 100.070312 " fill-opacity="1" fill-rule="nonzero"/><g clip-path="url(#799385937e)"><path fill="#020200" d="M 152.988281 69.535156 C 150.910156 69.535156 149.230469 71.214844 149.230469 73.292969 L 149.230469 284.949219 C 149.230469 287.027344 150.910156 288.707031 152.988281 288.707031 C 155.070312 288.707031 156.75 287.027344 156.75 284.949219 L 156.75 73.28125 C 156.738281 71.214844 155.058594 69.535156 152.988281 69.535156 Z M 152.988281 69.535156 " fill-opacity="1" fill-rule="nonzero"/></g></svg>